<svg id="Capa_1" data-name="Capa 1" xmlns="http://www.w3.org/2000/svg" viewBox="0 0 144.61 149.99"><title>hteclogo</title><path d="M142,45a15.1,15.1,0,0,0-12.5-6.45H72.31V68.25H101.9L72.31,112.17v31.08c0,6.56,8.49,9.27,12.21,3.87l.09-.13,57.47-85.28A14.84,14.84,0,0,0,142,45Z" transform="translate(0 -0.01)" fill="#fff"/><path d="M72.31,81.76H42.71l29.6-43.91V6.76c0-6.55-8.5-9.27-12.22-3.87A.57.57,0,0,1,60,3L2.53,88.3A14.84,14.84,0,0,0,2.6,105a15.1,15.1,0,0,0,12.49,6.44H72.31Z" transform="translate(0 -0.01)" fill="#fff"/></svg>