<svg id="Capa_1" data-name="Capa 1" xmlns="http://www.w3.org/2000/svg" viewBox="0 0 200 207.43"><title>hteclogo_sticky</title><path d="M196.41,62.27a20.87,20.87,0,0,0-17.28-8.92H100v41h40.93L100,155.11v43c0,9.07,11.75,12.82,16.89,5.35l.12-.18L196.5,85.33A20.53,20.53,0,0,0,196.41,62.27Z" transform="translate(0 0)" fill="#2c698d"/><path d="M100,113.05H59.07L100,52.32v-43C100,.27,88.25-3.49,83.11,4L83,4.16,3.5,122.1a20.53,20.53,0,0,0,.09,23.06,20.87,20.87,0,0,0,17.28,8.92H100Z" transform="translate(0 0)" fill="#c5f5f3"/></svg>
